<svg width="341" height="291" viewBox="0 0 341 291" fill="none" xmlns="http://www.w3.org/2000/svg">
<path d="M279.723 198.263C277.425 203.32 272.002 207.318 264.061 210.191C256.123 213.063 245.721 214.791 233.563 215.331C209.25 216.411 177.989 212.737 145.551 204.045C113.112 195.353 85.6621 183.295 67.5035 170.835C58.423 164.605 51.6796 158.283 47.7928 152.242C43.9042 146.199 42.8987 140.479 45.197 135.422C47.4953 130.366 52.918 126.368 60.8595 123.495C68.7971 120.623 79.1995 118.895 91.3576 118.355C115.67 117.275 146.931 120.949 179.37 129.641C211.808 138.333 239.258 150.39 257.417 162.85C266.497 169.081 273.241 175.403 277.127 181.443C281.016 187.487 282.021 193.207 279.723 198.263Z" stroke="#E9E9DB" stroke-width="0.6"/>
<path d="M292.906 158.229C292.28 163.748 288.355 169.224 281.688 174.408C275.024 179.589 265.662 184.442 254.264 188.707C231.471 197.237 200.602 203.388 167.064 205.129C133.526 206.871 103.695 203.872 82.5781 197.623C72.0181 194.498 63.653 190.565 58.0921 186.019C52.5285 181.47 49.8071 176.339 50.433 170.82C51.0589 165.302 54.9834 159.825 61.6507 154.642C68.3149 149.461 77.6765 144.607 89.0747 140.342C111.868 131.813 142.737 125.662 176.275 123.92C209.812 122.179 239.643 125.178 260.76 131.427C271.32 134.552 279.686 138.485 285.246 143.031C290.81 147.58 293.531 152.711 292.906 158.229Z" stroke="#E9E9DB" stroke-width="0.6"/>
</svg>
