<svg width="20.000000" height="20.000000" viewBox="0 0 20 20" fill="none" xmlns="http://www.w3.org/2000/svg" xmlns:xlink="http://www.w3.org/1999/xlink">
	<desc>
			Created with Pixso.
	</desc>
	<defs/>
	<path id="Combined Shape" d="M9.09229 0C6.37646 0 6.03564 0.0117188 4.96875 0.0595703C3.34375 0.133301 1.9165 0.529785 0.770508 1.66895C-0.375 2.80859 -0.773438 4.22852 -0.847656 5.84473C-0.895996 6.90527 -0.907715 7.24463 -0.907715 9.94531C-0.907715 12.6465 -0.895996 12.9854 -0.847656 14.0464C-0.773438 15.6626 -0.375 17.082 0.770508 18.2217C1.9165 19.3613 3.34375 19.7573 4.96875 19.8315C6.03564 19.8794 6.37646 19.8911 9.09229 19.8911C11.8081 19.8911 12.1489 19.8794 13.2158 19.8315C14.8408 19.7573 16.2681 19.3613 17.4141 18.2217C18.5596 17.082 18.958 15.6626 19.0322 14.0464C19.0806 12.9854 19.0923 12.6465 19.0923 9.94531C19.0923 7.24463 19.0806 6.90527 19.0322 5.84473C18.958 4.22852 18.5596 2.80859 17.4141 1.66895C16.2681 0.529785 14.8408 0.133301 13.2158 0.0595703C12.1489 0.0117188 11.8081 0 9.09229 0ZM13.1323 1.8501C12.0781 1.80176 11.7612 1.79199 9.09131 1.79199C6.42139 1.79199 6.10449 1.80176 5.05078 1.8501C3.91211 1.90137 2.85645 2.12842 2.04395 2.93652C1.23145 3.74463 1.00293 4.79492 0.951172 5.92676C0.902832 6.9751 0.893066 7.29004 0.893066 9.9458C0.893066 12.6011 0.902832 12.916 0.951172 13.9644C1.00293 15.0967 1.23145 16.1465 2.04395 16.9546C2.85645 17.7627 3.91211 17.9897 5.05078 18.0415C6.10449 18.0894 6.42139 18.0991 9.09131 18.0991C11.7612 18.0991 12.0781 18.0894 13.1323 18.0415C14.2705 17.9897 15.3262 17.7627 16.1387 16.9546C16.9512 16.1465 17.1797 15.0967 17.2314 13.9644C17.2798 12.916 17.2896 12.6011 17.2896 9.9458C17.2896 7.29004 17.2798 6.9751 17.2314 5.92676C17.1797 4.79492 16.9512 3.74463 16.1387 2.93652C15.3262 2.12842 14.2705 1.90137 13.1323 1.8501ZM15.6289 4.63721C15.6289 5.2959 15.0918 5.83057 14.4292 5.83057C13.7661 5.83057 13.229 5.2959 13.229 4.63721C13.229 3.97803 13.7661 3.44336 14.4292 3.44336C15.0918 3.44336 15.6289 3.97803 15.6289 4.63721ZM3.95557 9.94482C3.95557 7.12451 6.25439 4.83789 9.09033 4.83789C11.9263 4.83789 14.2251 7.12451 14.2251 9.94482C14.2251 12.7651 11.9263 15.0522 9.09033 15.0522C6.25439 15.0522 3.95557 12.7651 3.95557 9.94482ZM5.75635 9.94531C5.75635 11.7759 7.24854 13.2603 9.08936 13.2603C10.9302 13.2603 12.4229 11.7759 12.4229 9.94531C12.4229 8.11426 10.9302 6.62988 9.08936 6.62988C7.24854 6.62988 5.75635 8.11426 5.75635 9.94531Z" clip-rule="evenodd" fill="#E9E9DB" fill-opacity="1.000000" fill-rule="evenodd"/>
</svg>
