<svg width="20.000000" height="15.000000" viewBox="0 0 20 15" fill="none" xmlns="http://www.w3.org/2000/svg" xmlns:xlink="http://www.w3.org/1999/xlink">
	<desc>
			Created with Pixso.
	</desc>
	<defs/>
	<path id="Path" d="M17.12 3.05L17.13 3.56C17.13 8.73 13.18 14.69 5.94 14.69C3.72 14.69 1.65 14.04 -0.09 12.93C0.22 12.97 0.53 12.99 0.85 12.99C2.69 12.99 4.39 12.36 5.73 11.31C4.01 11.28 2.56 10.15 2.06 8.59C2.3 8.64 2.54 8.66 2.8 8.66C3.16 8.66 3.51 8.62 3.84 8.53C2.04 8.16 0.68 6.58 0.68 4.69L0.68 4.64C1.21 4.93 1.82 5.11 2.46 5.13C1.41 4.43 0.71 3.23 0.71 1.87C0.71 1.16 0.91 0.49 1.24 -0.09C3.18 2.28 6.08 3.83 9.35 4C9.29 3.71 9.25 3.41 9.25 3.1C9.25 0.95 11.01 -0.81 13.19 -0.81C14.32 -0.81 15.34 -0.33 16.06 0.43C16.95 0.25 17.8 -0.07 18.56 -0.52C18.26 0.39 17.64 1.16 16.83 1.64C17.62 1.55 18.38 1.34 19.09 1.03C18.56 1.81 17.89 2.5 17.12 3.05Z" fill="#E9E9DB" fill-opacity="1.000000" fill-rule="nonzero"/>
</svg>
